<svg id="visual" viewBox="0 0 900 600" width="900" height="600" xmlns="http://www.w3.org/2000/svg" xmlns:xlink="http://www.w3.org/1999/xlink" version="1.1"><rect x="0" y="0" width="900" height="600" fill="#121212"></rect><path d="M0 184L37.5 194.8C75 205.7 150 227.3 225 245.5C300 263.7 375 278.3 450 286.7C525 295 600 297 675 282.2C750 267.3 825 235.7 862.5 219.8L900 204L900 601L862.5 601C825 601 750 601 675 601C600 601 525 601 450 601C375 601 300 601 225 601C150 601 75 601 37.5 601L0 601Z" fill="#594d5d"></path><path d="M0 341L37.5 337.3C75 333.7 150 326.3 225 332.5C300 338.7 375 358.3 450 364C525 369.7 600 361.3 675 350.8C750 340.3 825 327.7 862.5 321.3L900 315L900 601L862.5 601C825 601 750 601 675 601C600 601 525 601 450 601C375 601 300 601 225 601C150 601 75 601 37.5 601L0 601Z" fill="#47404a"></path><path d="M0 415L37.5 418.3C75 421.7 150 428.3 225 427C300 425.7 375 416.3 450 408.2C525 400 600 393 675 389.5C750 386 825 386 862.5 386L900 386L900 601L862.5 601C825 601 750 601 675 601C600 601 525 601 450 601C375 601 300 601 225 601C150 601 75 601 37.5 601L0 601Z" fill="#373438"></path><path d="M0 516L37.5 520.5C75 525 150 534 225 533C300 532 375 521 450 514.7C525 508.3 600 506.7 675 503C750 499.3 825 493.7 862.5 490.8L900 488L900 601L862.5 601C825 601 750 601 675 601C600 601 525 601 450 601C375 601 300 601 225 601C150 601 75 601 37.5 601L0 601Z" fill="#272727"></path></svg>